HIERARCHY
ROOT Hips
{
	OFFSET 0.000000 97.420761 0.000000
	CHANNELS 6 Xposition Yposition Zposition Xrotation Yrotation Zrotation
	JOINT RightUpLeg
	{
		OFFSET -8.571318 0.002251 -0.000250
		CHANNELS 6 Xposition Yposition Zposition Xrotation Yrotation Zrotation
		JOINT RightLeg
		{
			OFFSET 0.000000 -44.326080 -0.000105
			CHANNELS 6 Xposition Yposition Zposition Xrotation Yrotation Zrotation
			JOINT RightFoot
			{
				OFFSET 0.000000 -43.324329 -0.000176
				CHANNELS 6 Xposition Yposition Zposition Xrotation Yrotation Zrotation
				JOINT RightToeBase
				{
					OFFSET 0.000000 -7.938133 18.050686
					CHANNELS 6 Xposition Yposition Zposition Xrotation Yrotation Zrotation
					End Site
					{
						OFFSET 0.000000 0.000000 19.719055
					}
				}
			}
		}
	}
	JOINT LeftUpLeg
	{
		OFFSET 8.571318 -0.000084 0.000009
		CHANNELS 6 Xposition Yposition Zposition Xrotation Yrotation Zrotation
		JOINT LeftLeg
		{
			OFFSET 0.000000 -44.326080 -0.000105
			CHANNELS 6 Xposition Yposition Zposition Xrotation Yrotation Zrotation
			JOINT LeftFoot
			{
				OFFSET 0.000000 -43.324329 -0.000176
				CHANNELS 6 Xposition Yposition Zposition Xrotation Yrotation Zrotation
				JOINT LeftToeBase
				{
					OFFSET 0.000000 -7.938133 18.050686
					CHANNELS 6 Xposition Yposition Zposition Xrotation Yrotation Zrotation
					End Site
					{
						OFFSET 0.000000 0.000000 19.719055
					}
				}
			}
		}
	}
	JOINT Spine
	{
		OFFSET 0.000000 10.422829 -1.158092
		CHANNELS 6 Xposition Yposition Zposition Xrotation Yrotation Zrotation
		JOINT Spine1
		{
			OFFSET 0.000000 11.587624 0.000000
			CHANNELS 3 Xrotation Yrotation Zrotation
			JOINT Spine2
			{
				OFFSET 0.000000 10.579559 -0.000443
				CHANNELS 6 Xposition Yposition Zposition Xrotation Yrotation Zrotation
				JOINT Spine3
				{
					OFFSET 0.000000 10.567749 -0.000444
					CHANNELS 6 Xposition Yposition Zposition Xrotation Yrotation Zrotation
					JOINT LeftShoulder
					{
						OFFSET 3.218383 8.290512 0.000000
						CHANNELS 6 Xposition Yposition Zposition Xrotation Yrotation Zrotation
						JOINT LeftArm
						{
							OFFSET 15.038529 0.000000 0.000000
							CHANNELS 3 Xrotation Yrotation Zrotation
							JOINT LeftForeArm
							{
								OFFSET 32.129166 0.000000 0.000000
								CHANNELS 3 Xrotation Yrotation Zrotation
								JOINT LeftHand
								{
									OFFSET 26.275406 0.000000 0.000000
									CHANNELS 3 Xrotation Yrotation Zrotation
									End Site
									{
										OFFSET 26.275406 0.000000 0.000000
									}
								}
							}
						}
					}
					JOINT RightShoulder
					{
						OFFSET -3.218383 8.290512 0.000000
						CHANNELS 6 Xposition Yposition Zposition Xrotation Yrotation Zrotation
						JOINT RightArm
						{
							OFFSET -15.038529 0.000000 0.000000
							CHANNELS 3 Xrotation Yrotation Zrotation
							JOINT RightForeArm
							{
								OFFSET -32.129166 0.000000 0.000000
								CHANNELS 3 Xrotation Yrotation Zrotation
								JOINT RightHand
								{
									OFFSET -26.275406 0.000000 0.000000
									CHANNELS 3 Xrotation Yrotation Zrotation
									End Site
									{
										OFFSET -26.275406 0.000000 0.000000
									}
								}
							}
						}
					}
					JOINT Neck
					{
						OFFSET 0.000000 14.789474 0.000000
						CHANNELS 6 Xposition Yposition Zposition Xrotation Yrotation Zrotation
						JOINT Head
						{
							OFFSET 0.000000 9.838806 0.000953
							CHANNELS 6 Xposition Yposition Zposition Xrotation Yrotation Zrotation
							End Site
							{
								OFFSET 0.000000 9.838806 0.000000
							}
						}
					}
				}
			}
		}
	}
}
MOTION
Frames: 4
Frame Time: 0.016667
-180.038605 39.701546 178.555496 -102.924660 -8.118049 29.120614 -8.571328 0.002248 -0.000244 -27.812552 -1.059277 -2.089387 0.000007 -44.326057 -0.000104 114.774936 0.187538 -0.010311 -0.000012 -43.324326 -0.000192 11.326752 3.523107 5.100254 0.000008 -7.938130 18.050701 0.000000 -0.000000 0.000000 8.571301 -0.000081 0.000013 -36.242039 -6.580949 -5.454586 0.000003 -44.326061 -0.000111 126.211241 0.501455 0.754431 -0.000035 -43.324322 -0.000195 -3.430194 -21.105146 -12.839616 -0.000005 -7.938136 18.050676 0.000001 0.000000 0.000000 -0.000005 10.422819 -1.158083 1.599441 -2.511534 -0.529776 -5.113782 -1.083875 -0.355935 -0.000026 10.579578 -0.000443 0.706649 -1.083838 -0.356044 0.000006 10.567785 -0.000444 6.367847 -0.835523 -0.184336 3.218386 8.290513 0.000004 -5.029471 1.923352 -1.092050 25.389268 -7.860380 -77.015430 14.375024 -5.670162 -12.010647 2.832816 8.441718 -5.807082 -3.218371 8.290505 0.000003 -8.670656 -3.291924 1.042936 16.088562 19.480104 89.536096 18.787999 -2.108505 4.292392 4.069081 -12.505624 18.476019 0.000003 14.789468 0.000001 4.457458 0.800590 1.197424 -0.000019 9.838845 0.000956 -27.755438 0.809937 2.543712 
-180.029099 39.713455 178.545593 -102.942760 -8.083695 29.140538 -8.571303 0.002255 -0.000250 -27.781812 -0.988873 -2.012739 0.000009 -44.326046 -0.000097 114.800699 0.150984 -0.027291 0.000004 -43.324329 -0.000183 11.334658 3.528478 5.124762 -0.000003 -7.938131 18.050667 -0.000001 0.000000 0.000000 8.571338 -0.000094 0.000004 -36.314326 -6.565262 -5.374208 0.000003 -44.326073 -0.000098 126.309992 0.520017 0.729364 -0.000048 -43.324322 -0.000195 -3.393991 -20.955140 -12.901506 0.000028 -7.938130 18.050663 -0.000001 -0.000000 -0.000000 0.000033 10.422808 -1.158094 1.585264 -2.523781 -0.538533 -5.120028 -1.088885 -0.360325 0.000002 10.579558 -0.000437 0.700403 -1.088846 -0.360437 0.000013 10.567752 -0.000451 6.363177 -0.839591 -0.187226 3.218401 8.290515 -0.000004 -5.004868 1.910398 -1.092144 25.376634 -7.826374 -77.025887 14.420165 -5.657858 -12.008421 2.827475 8.422106 -5.811807 -3.218376 8.290519 -0.000001 -8.658426 -3.294474 1.038314 16.106401 19.498413 89.533221 18.762475 -2.104006 4.292744 4.067109 -12.507431 18.469106 0.000016 14.789481 -0.000004 4.493686 0.801964 1.197989 0.000046 9.838827 0.000958 -27.688200 0.812795 2.545254 
-180.018860 39.727531 178.533905 -102.962868 -8.049946 29.163921 -8.571337 0.002229 -0.000253 -27.746457 -0.914881 -1.933238 -0.000013 -44.326065 -0.000106 114.829673 0.093705 -0.052985 0.000006 -43.324337 -0.000199 11.333930 3.536711 5.159540 -0.000001 -7.938135 18.050699 -0.000001 0.000003 0.000001 8.571304 -0.000102 0.000010 -36.399246 -6.560636 -5.273429 0.000011 -44.326077 -0.000098 126.440025 0.533866 0.672284 -0.000002 -43.324333 -0.000177 -3.355231 -20.764694 -12.974951 0.000009 -7.938136 18.050663 0.000001 0.000001 -0.000000 -0.000006 10.422797 -1.158091 1.569285 -2.537062 -0.549181 -5.127066 -1.094263 -0.365582 -0.000008 10.579554 -0.000445 0.693367 -1.094226 -0.365696 0.000016 10.567768 -0.000442 6.357917 -0.844003 -0.190732 3.218415 8.290500 0.000001 -4.976149 1.897721 -1.092483 25.363684 -7.791474 -77.038100 14.477716 -5.645089 -12.004326 2.817934 8.399936 -5.817275 -3.218350 8.290516 0.000006 -8.643394 -3.294876 1.035172 16.125458 19.520426 89.528631 18.732555 -2.101175 4.294751 4.066082 -12.509439 18.462753 0.000028 14.789455 0.000003 4.535573 0.802752 1.201320 0.000004 9.838801 0.000953 -27.610396 0.813309 2.551392 
-180.010498 39.740570 178.523514 -102.984465 -8.017554 29.184292 -8.571338 0.002233 -0.000248 -27.713942 -0.846401 -1.859108 0.000014 -44.326069 -0.000089 114.855682 0.052816 -0.075220 -0.000009 -43.324329 -0.000182 11.335881 3.533994 5.196699 0.000005 -7.938135 18.050692 -0.000000 0.000001 -0.000000 8.571317 -0.000097 0.000009 -36.481683 -6.542223 -5.167826 -0.000001 -44.326096 -0.000110 126.591491 0.564207 0.630736 0.000030 -43.324333 -0.000178 -3.328161 -20.617022 -13.058940 0.000017 -7.938138 18.050695 0.000001 0.000001 0.000000 0.000004 10.422821 -1.158094 1.556488 -2.550438 -0.559258 -5.132690 -1.099707 -0.370612 0.000005 10.579577 -0.000441 0.687741 -1.099669 -0.370725 0.000024 10.567744 -0.000438 6.353716 -0.848444 -0.194068 3.218381 8.290509 0.000005 -4.950616 1.885690 -1.091875 25.353502 -7.763114 -77.048714 14.529124 -5.636391 -11.998314 2.801295 8.380778 -5.823707 -3.218370 8.290515 0.000000 -8.630780 -3.295450 1.034297 16.143531 19.544453 89.524362 18.702021 -2.097065 4.295211 4.064965 -12.511623 18.456679 0.000008 14.789454 0.000001 4.573371 0.802315 1.206886 0.000009 9.838823 0.000959 -27.540146 0.810417 2.560896 
